# xmcd
#
# Track frame offsets:
#	150
#	19179
#	37984
#	54767
#	73882
#	94854
#	115599
#	140807
#	165324
#	189309
#	205129
#	219787
#	236592
#
# Disc length: 3424 seconds
#
# Revision: 5
# Processed by: cddbd v1.5.2PL0 Copyright (c) Steve Scherf et al.
# Submitted via: EasyCDDAExtractor 15.3.0.1
#
DISCID=a90d5e0d
DTITLE=Robinson - Anjo
DYEAR=2001
DGENRE=Gospel
TTITLE0=Pra sempre vou te amar
TTITLE1=Em sua voz
TTITLE2=Ficou no ar
TTITLE3=Tudo me lembra você
TTITLE4=Viver é ter você pra mim
TTITLE5=Doido pra ser feliz
TTITLE6=Amanhã
TTITLE7=Coisas da vida
TTITLE8=Rio das inquietas águas
TTITLE9=Contrato assinado
TTITLE10=Anjo
TTITLE11=We are the world
TTITLE12=Se tu quizeres crer
EXTD=YEAR: 2001
EXTT0=
EXTT1=
EXTT2=
EXTT3=
EXTT4=
EXTT5=
EXTT6=
EXTT7=
EXTT8=
EXTT9=
EXTT10=
EXTT11=
EXTT12=
PLAYORDER=
